<!DOCTYPE svg PUBLIC "-//W3C//DTD SVG 1.1//EN" "http://www.w3.org/Graphics/SVG/1.1/DTD/svg11.dtd">
<!-- Uploaded to: SVG Repo, www.svgrepo.com, Transformed by: SVG Repo Mixer Tools -->
<svg width="800px" height="800px" viewBox="0 0 24 24" fill="none" xmlns="http://www.w3.org/2000/svg">
<g id="SVGRepo_bgCarrier" stroke-width="0"/>
<g id="SVGRepo_tracerCarrier" stroke-linecap="round" stroke-linejoin="round"/>
<g id="SVGRepo_iconCarrier"> <g id="style=linear"> <g id="edit"> <path id="vector" d="M18.4101 3.6512L20.5315 5.77252C21.4101 6.6512 21.4101 8.07582 20.5315 8.9545L9.54019 19.9458C9.17774 20.3082 8.70239 20.536 8.19281 20.5915L4.57509 20.9856C3.78097 21.072 3.11061 20.4017 3.1971 19.6076L3.59111 15.9898C3.64661 15.4803 3.87444 15.0049 4.23689 14.6425L3.70656 14.1121L4.23689 14.6425L15.2282 3.6512C16.1068 2.77252 17.5315 2.77252 18.4101 3.6512Z" stroke="#0c0c0c" stroke-width="1.5"/> <path id="vector_2" d="M15.2282 3.6512C16.1068 2.77252 17.5315 2.77252 18.4101 3.6512L20.5315 5.77252C21.4101 6.6512 21.4101 8.07582 20.5315 8.9545L18.7283 10.7576L13.425 5.45432L15.2282 3.6512Z" stroke="#0c0c0c" stroke-width="1.5"/> </g> </g> </g>
</svg>