<!DOCTYPE svg PUBLIC "-//W3C//DTD SVG 1.1//EN" "http://www.w3.org/Graphics/SVG/1.1/DTD/svg11.dtd">
<!-- Uploaded to: SVG Repo, www.svgrepo.com, Transformed by: SVG Repo Mixer Tools -->
<svg width="800px" height="800px" viewBox="0 0 24 24" fill="none" xmlns="http://www.w3.org/2000/svg">
<g id="SVGRepo_bgCarrier" stroke-width="0"/>
<g id="SVGRepo_tracerCarrier" stroke-linecap="round" stroke-linejoin="round"/>
<g id="SVGRepo_iconCarrier"> <path d="M11.1924 5.65685C11.5829 5.26633 11.5829 4.63316 11.1924 4.24264L8.36397 1.41421C8.30576 1.356 8.24485 1.30212 8.18165 1.25259C7.50286 0.720577 6.55947 0.689024 5.84929 1.15793C5.73839 1.23115 5.63317 1.31658 5.53554 1.41421L2.70711 4.24264C2.31658 4.63316 2.31658 5.26633 2.70711 5.65685C3.09763 6.04738 3.7308 6.04738 4.12132 5.65685L6.00003 3.77814V18C6.00003 18.5523 6.44775 19 7.00003 19C7.55232 19 8.00003 18.5523 8.00003 18V3.8787L9.77818 5.65685C10.1687 6.04737 10.8019 6.04737 11.1924 5.65685Z" fill="#ffffff"/> <path d="M12.7071 18.3432C12.3166 18.7337 12.3166 19.3668 12.7071 19.7574L15.5355 22.5858C15.6332 22.6834 15.7384 22.7689 15.8493 22.8421C16.6256 23.3546 17.6805 23.2692 18.364 22.5858L21.1924 19.7574C21.5829 19.3668 21.5829 18.7337 21.1924 18.3432C20.8019 17.9526 20.1687 17.9526 19.7782 18.3432L18 20.1213L18 6C18 5.44771 17.5523 5 17 5C16.4477 5 16 5.44771 16 6L16 20.2218L14.1213 18.3432C13.7308 17.9526 13.0976 17.9526 12.7071 18.3432Z" fill="#ffffff"/> </g>
</svg>